<?xml version="1.0" encoding="UTF-8" standalone="no"?>
<!DOCTYPE svg PUBLIC "-//W3C//DTD SVG 1.1//EN" "http://www.w3.org/Graphics/SVG/1.1/DTD/svg11.dtd">
<svg xmlns="http://www.w3.org/2000/svg" version="1.1" viewBox="0.00 0.00 500.00 500.00">
<g stroke-width="2.00" fill="none" stroke-linecap="butt">
<path stroke="#8fade0" vector-effect="non-scaling-stroke" d="
  M 211.02 219.32
  C 210.08 216.75 207.49 211.15 204.23 211.22
  A 1.34 1.34 0.0 0 0 202.98 212.16
  Q 195.55 235.64 188.23 259.77
  Q 185.97 267.24 184.57 274.04
  C 183.86 277.47 186.43 280.57 188.99 282.51
  A 2.08 2.08 0.0 0 0 191.84 282.18
  L 192.66 281.19"
/>
<path stroke="#8fade0" vector-effect="non-scaling-stroke" d="
  M 388.79 217.50
  L 386.84 223.62
  Q 386.69 224.12 386.16 224.10
  Q 381.71 223.98 377.52 223.82
  Q 367.36 223.44 360.04 217.26
  C 358.49 215.95 357.57 214.39 356.61 212.65
  A 0.52 0.52 0.0 0 0 355.66 212.73
  Q 355.47 213.28 355.60 214.22"
/>
<path stroke="#96a8ca" stroke-opacity="0.824" vector-effect="non-scaling-stroke" d="
  M 409.42 224.64
  L 416.09 226.45"
/>
<path stroke="#96a8ca" stroke-opacity="0.824" vector-effect="non-scaling-stroke" d="
  M 419.13 227.70
  L 424.27 230.98"
/>
<path stroke="#8fade0" vector-effect="non-scaling-stroke" d="
  M 424.27 230.98
  Q 424.40 231.22 424.90 231.41
  Q 425.21 231.53 425.61 231.44
  Q 429.84 230.46 434.07 231.99"
/>
<path stroke="#96a8ca" stroke-opacity="0.824" vector-effect="non-scaling-stroke" d="
  M 445.12 240.82
  L 447.82 232.08"
/>
<path stroke="#8fade0" vector-effect="non-scaling-stroke" d="
  M 463.31 219.70
  Q 457.29 233.43 452.31 248.26
  Q 451.80 249.78 451.72 251.40"
/>
<path stroke="#96a8ca" stroke-opacity="0.824" vector-effect="non-scaling-stroke" d="
  M 451.72 251.40
  Q 451.39 251.92 451.25 252.78"
/>
<path stroke="#96a8ca" stroke-opacity="0.824" vector-effect="non-scaling-stroke" d="
  M 450.30 266.86
  L 457.03 256.77"
/>
<path stroke="#8fade0" vector-effect="non-scaling-stroke" d="
  M 457.03 256.77
  L 462.71 244.52"
/>
<path stroke="#96a8ca" stroke-opacity="0.824" vector-effect="non-scaling-stroke" d="
  M 457.58 261.53
  Q 454.96 265.40 452.37 268.62
  Q 450.41 271.06 447.92 272.09"
/>
<path stroke="#265db9" stroke-opacity="0.824" vector-effect="non-scaling-stroke" d="
  M 457.03 256.77
  L 454.94 252.66
  Q 454.73 252.25 454.27 252.22
  Q 453.52 252.16 453.27 251.53
  Q 452.42 250.89 451.72 251.40"
/>
<path stroke="#265db9" stroke-opacity="0.824" vector-effect="non-scaling-stroke" d="
  M 428.76 229.81
  L 424.27 230.98"
/>
<path stroke="#265db9" stroke-opacity="0.824" vector-effect="non-scaling-stroke" d="
  M 458.43 267.96
  Q 456.03 268.34 454.70 270.03
  Q 452.63 272.67 452.53 272.77
  Q 451.06 274.24 449.84 275.97"
/>
<path stroke="#8fade0" vector-effect="non-scaling-stroke" d="
  M 459.60 209.03
  Q 456.25 208.38 455.03 212.00
  Q 453.51 216.49 447.82 232.08"
/>
<path stroke="#265db9" stroke-opacity="0.824" vector-effect="non-scaling-stroke" d="
  M 447.82 232.08
  Q 445.74 229.71 446.54 226.67
  Q 446.99 224.99 447.00 224.23
  Q 447.03 222.98 446.97 221.70"
/>
<path stroke="#8fade0" vector-effect="non-scaling-stroke" d="
  M 413.74 207.44
  L 410.23 207.12"
/>
<path stroke="#265db9" stroke-opacity="0.824" vector-effect="non-scaling-stroke" d="
  M 453.13 251.12
  Q 453.48 251.56 454.04 251.77
  Q 454.67 252.00 454.40 251.39
  Q 453.88 250.19 452.62 250.36
  Q 451.93 250.44 452.48 250.86
  Q 452.77 251.08 453.13 251.12"
/>
</g>
<path fill="#eaebee" d="
  M 86.36 192.46
  Q 85.12 194.36 84.07 196.47
  Q 77.14 210.30 73.48 223.12
  Q 71.80 228.98 70.29 237.47
  Q 66.68 257.71 72.35 276.75
  C 73.96 282.14 76.52 287.27 79.33 292.03
  Q 80.28 293.63 78.77 292.55
  Q 60.95 279.88 58.44 257.08
  C 57.22 245.96 59.78 233.89 63.65 222.95
  Q 65.96 216.40 69.34 209.47
  Q 72.78 202.42 76.72 195.90
  Q 86.44 179.80 99.21 164.21
  Q 101.22 161.76 103.15 159.21
  Q 103.80 158.34 103.52 159.39
  Q 103.14 160.84 102.49 162.18
  Q 90.71 186.74 84.25 212.98
  Q 82.62 219.58 82.08 225.86
  Q 82.02 226.49 81.44 226.72
  C 79.30 227.57 79.75 229.29 79.75 231.20
  Q 79.72 245.55 79.74 258.54
  Q 79.74 260.62 78.76 258.78
  Q 74.04 249.95 74.64 239.22
  Q 75.34 226.71 79.26 213.67
  Q 82.45 203.07 86.59 192.58
  Q 87.07 191.38 86.36 192.46
  Z"
/>
<path fill="#eaebee" d="
  M 112.47 192.59
  Q 112.37 192.66 112.25 192.73
  Q 112.18 192.76 112.18 192.84
  Q 112.21 205.55 116.39 218.04
  Q 116.59 218.64 116.00 218.87
  Q 114.15 219.57 112.72 220.72
  Q 112.16 221.16 111.80 220.54
  Q 107.81 213.60 107.35 205.24
  C 106.77 194.50 107.62 184.86 112.07 174.77
  Q 112.40 174.03 112.53 174.83
  Q 114.47 186.39 118.38 196.80
  Q 121.17 204.24 125.41 211.34
  Q 127.38 214.64 132.34 220.80
  C 144.03 235.34 148.74 253.87 144.24 272.26
  Q 142.10 280.99 136.35 287.23
  Q 131.83 292.14 126.13 295.18
  C 116.09 300.55 101.94 299.95 92.10 295.82
  Q 80.77 291.07 76.77 280.10
  Q 73.67 271.60 74.83 262.01
  Q 75.22 258.84 75.72 261.99
  C 76.48 266.67 77.56 271.48 80.13 275.66
  C 88.35 288.99 104.43 289.51 118.00 284.00
  Q 122.21 282.30 125.20 278.75
  C 132.03 270.66 135.85 259.63 135.15 249.54
  Q 134.32 237.67 127.89 227.14
  Q 127.67 226.78 127.68 226.36
  Q 127.75 222.23 124.73 220.09
  Q 123.36 219.12 122.58 217.67
  Q 115.33 204.33 112.89 192.75
  Q 112.81 192.34 112.47 192.59
  Z"
/>
<path fill="#336fd1" d="
  M 211.02 219.32
  C 210.08 216.75 207.49 211.15 204.23 211.22
  A 1.34 1.34 0.0 0 0 202.98 212.16
  Q 195.55 235.64 188.23 259.77
  Q 185.97 267.24 184.57 274.04
  C 183.86 277.47 186.43 280.57 188.99 282.51
  A 2.08 2.08 0.0 0 0 191.84 282.18
  L 192.66 281.19
  Q 195.13 278.43 196.02 275.60
  Q 196.71 273.40 197.31 275.62
  C 199.19 282.60 199.90 286.94 205.87 291.65
  Q 206.57 292.20 205.68 292.17
  C 189.10 291.68 176.81 278.43 177.55 261.81
  Q 178.18 247.74 184.77 235.85
  Q 190.73 225.09 198.18 212.51
  C 200.86 207.99 202.72 203.18 205.02 198.48
  A 0.76 0.76 0.0 0 1 206.19 198.22
  Q 211.95 202.91 213.75 210.58
  Q 214.88 215.37 211.83 217.62
  Q 211.43 217.92 211.29 218.40
  L 211.02 219.32
  Z"
/>
<path fill="#336fd1" d="
  M 388.79 217.50
  L 386.84 223.62
  Q 386.69 224.12 386.16 224.10
  Q 381.71 223.98 377.52 223.82
  Q 367.36 223.44 360.04 217.26
  C 358.49 215.95 357.57 214.39 356.61 212.65
  A 0.52 0.52 0.0 0 0 355.66 212.73
  Q 355.47 213.28 355.60 214.22
  Q 355.04 213.41 355.03 213.41
  A 0.58 0.58 0.0 0 0 354.31 214.10
  Q 355.76 220.80 359.49 225.60
  Q 360.65 227.10 358.78 227.33
  Q 358.02 227.43 357.28 227.46
  Q 355.15 227.55 354.40 225.55
  C 352.97 221.76 351.17 217.79 350.39 213.85
  Q 348.91 206.40 349.17 198.87
  Q 349.21 197.66 349.48 198.84
  Q 351.13 206.27 357.78 210.96
  C 360.37 212.78 363.56 213.50 366.55 214.57
  Q 368.38 215.23 370.36 215.45
  Q 376.98 216.20 383.66 216.36
  Q 385.55 216.41 387.33 216.81
  Q 387.64 216.88 387.90 217.08
  Q 388.09 217.23 388.00 217.44
  Q 387.74 218.12 388.32 217.68
  Q 388.49 217.55 388.79 217.50
  Z"
/>
<path fill="#336fd1" d="
  M 459.60 209.03
  Q 456.25 208.38 455.03 212.00
  Q 453.51 216.49 447.82 232.08
  Q 445.74 229.71 446.54 226.67
  Q 446.99 224.99 447.00 224.23
  Q 447.03 222.98 446.97 221.70
  L 451.48 202.09
  Q 451.60 201.57 451.99 201.93
  L 459.60 209.03
  Z"
/>
<path fill="#eaebee" d="
  M 192.66 281.19
  L 191.84 282.18
  A 2.08 2.08 0.0 0 1 188.99 282.51
  C 186.43 280.57 183.86 277.47 184.57 274.04
  Q 185.97 267.24 188.23 259.77
  Q 195.55 235.64 202.98 212.16
  A 1.34 1.34 0.0 0 1 204.23 211.22
  C 207.49 211.15 210.08 216.75 211.02 219.32
  L 201.72 248.25
  A 0.17 0.16 29.2 0 0 201.77 248.42
  L 202.10 248.75
  Q 202.14 248.79 202.16 248.73
  Q 205.82 240.30 209.85 232.64
  Q 213.68 225.36 218.04 219.89
  C 220.96 216.22 225.02 212.73 230.02 211.83
  C 238.28 210.34 233.38 224.44 232.56 227.76
  C 231.26 233.00 229.15 237.98 227.79 243.09
  Q 227.26 245.10 228.13 243.22
  Q 233.14 232.37 238.57 222.32
  Q 242.04 215.91 248.16 208.23
  C 250.94 204.73 257.50 199.52 261.32 205.15
  Q 264.00 209.08 263.34 212.63
  C 262.37 217.82 259.59 222.84 257.59 227.84
  Q 252.24 241.27 248.85 250.99
  Q 247.75 254.15 244.66 264.74
  Q 242.47 272.20 241.84 280.38
  Q 241.39 286.30 243.89 290.85
  A 0.66 0.66 0.0 0 1 243.42 291.82
  Q 241.53 292.14 239.79 291.61
  Q 230.63 288.84 231.39 279.18
  Q 231.95 272.15 233.81 265.24
  Q 238.06 249.50 243.70 234.73
  Q 247.37 225.15 251.65 216.93
  Q 252.17 215.94 251.19 216.48
  Q 249.90 217.21 248.88 218.38
  Q 246.05 221.65 243.60 225.06
  Q 234.93 237.12 227.90 250.22
  Q 225.81 254.11 224.23 258.26
  A 0.89 0.89 0.0 0 1 223.36 258.83
  Q 217.37 258.54 217.20 252.71
  Q 217.06 247.96 218.31 243.98
  Q 221.33 234.36 224.25 224.10
  Q 224.84 222.06 223.16 223.37
  Q 220.28 225.62 218.39 228.09
  Q 213.63 234.32 208.42 244.13
  Q 202.19 255.85 199.06 263.25
  Q 197.08 267.93 192.66 281.19
  Z"
/>
<path fill="#336fd1" d="
  M 413.74 207.44
  L 410.23 207.12
  Q 411.64 206.09 413.74 207.44
  Z"
/>
<path fill="#eaebee" d="
  M 410.23 207.12
  L 413.74 207.44
  Q 415.93 208.74 417.12 210.88
  C 418.08 212.63 417.24 214.80 416.19 216.26
  Q 414.19 219.02 412.81 222.21
  A 1.28 1.28 0.0 0 1 411.50 222.98
  C 405.12 222.33 407.47 212.17 408.94 208.63
  Q 409.32 207.72 410.23 207.12
  Z"
/>
<path fill="#eaebee" d="
  M 409.42 224.64
  L 416.09 226.45
  L 419.13 227.70
  L 424.27 230.98
  Q 424.40 231.22 424.90 231.41
  Q 425.21 231.53 425.61 231.44
  Q 429.84 230.46 434.07 231.99
  C 438.30 234.51 437.85 240.45 436.05 244.20
  Q 435.60 245.14 434.56 245.04
  Q 433.98 244.99 433.63 244.40
  A 0.97 0.97 0.0 0 1 433.57 243.53
  Q 434.70 240.90 434.78 238.06
  A 1.00 1.00 0.0 0 0 433.27 237.17
  Q 430.73 238.67 428.86 240.94
  Q 422.56 248.57 418.46 258.01
  Q 416.78 261.89 416.39 265.87
  Q 416.12 268.64 417.96 266.55
  Q 422.17 261.75 426.12 254.63
  C 427.53 252.09 428.32 249.39 429.62 246.80
  Q 430.72 244.62 432.81 245.87
  L 435.28 247.35
  Q 437.91 248.93 436.79 251.78
  C 434.98 256.43 432.84 260.75 432.18 265.69
  A 0.69 0.68 -12.1 0 0 433.22 266.36
  C 436.78 264.14 438.64 259.50 440.36 255.72
  C 442.40 251.25 443.65 245.81 445.12 240.82
  L 447.82 232.08
  Q 453.51 216.49 455.03 212.00
  Q 456.25 208.38 459.60 209.03
  Q 464.64 213.41 463.31 219.70
  Q 457.29 233.43 452.31 248.26
  Q 451.80 249.78 451.72 251.40
  Q 451.39 251.92 451.25 252.78
  Q 448.87 259.40 448.31 266.71
  Q 448.22 267.99 449.39 267.47
  Q 449.61 267.38 450.30 266.86
  L 457.03 256.77
  L 462.71 244.52
  Q 463.44 244.31 463.56 244.36
  A 1.65 1.41 -70.5 0 1 464.32 246.35
  C 463.41 249.07 462.49 251.76 461.19 254.31
  Q 459.28 258.07 457.58 261.53
  Q 454.96 265.40 452.37 268.62
  Q 450.41 271.06 447.92 272.09
  C 442.87 272.53 441.20 265.30 440.91 261.53
  Q 440.85 260.66 440.29 261.34
  C 438.55 263.49 437.69 266.01 435.67 267.90
  C 433.86 269.59 431.59 271.71 428.95 271.30
  C 425.35 270.74 423.90 266.31 424.49 263.17
  Q 424.62 262.49 423.99 262.75
  Q 423.67 262.88 423.52 263.20
  Q 421.97 266.50 417.94 270.08
  C 415.37 272.36 412.98 273.06 411.00 269.55
  Q 409.44 266.79 409.13 264.02
  Q 408.96 262.52 408.21 263.84
  C 406.65 266.58 404.38 269.21 401.91 271.20
  Q 399.63 273.03 396.99 270.76
  Q 393.25 267.54 393.88 262.84
  Q 394.28 259.87 392.76 262.45
  Q 390.48 266.32 386.40 270.46
  Q 383.98 272.90 381.36 271.40
  C 378.03 269.50 376.80 263.70 377.09 260.27
  Q 377.22 258.79 376.37 260.01
  C 374.18 263.17 368.98 272.64 364.46 271.91
  Q 362.76 271.63 361.53 270.36
  Q 357.57 266.28 359.53 260.11
  Q 362.80 249.83 366.64 240.41
  Q 367.31 238.76 367.42 237.02
  Q 367.46 236.34 366.97 236.81
  Q 364.97 238.73 363.47 241.48
  Q 360.51 246.89 358.45 251.62
  Q 354.37 260.97 351.07 270.22
  A 1.84 1.84 0.0 0 1 348.49 271.24
  Q 344.63 269.24 344.54 264.60
  Q 344.50 262.67 343.56 264.35
  C 342.05 267.04 339.61 269.63 336.86 270.98
  C 332.43 273.15 329.30 267.76 329.68 264.14
  Q 329.97 261.42 328.55 263.75
  C 327.14 266.07 322.09 272.86 318.75 271.81
  C 316.17 271.01 314.72 266.38 314.48 264.15
  Q 314.31 262.58 313.48 263.93
  Q 311.40 267.33 308.09 270.52
  C 305.54 272.98 302.27 272.04 300.40 269.43
  Q 297.53 265.45 299.23 260.14
  Q 302.40 250.29 305.99 241.31
  Q 306.77 239.36 307.22 237.34
  Q 307.47 236.24 306.61 236.97
  Q 304.72 238.59 303.25 241.37
  Q 296.23 254.68 290.90 270.07
  C 290.43 271.42 289.25 271.83 288.03 271.08
  Q 284.09 268.64 284.23 264.54
  Q 284.30 262.60 283.32 264.27
  Q 281.26 267.80 277.93 270.15
  C 272.63 273.88 268.39 268.11 269.49 263.18
  Q 269.53 262.99 269.45 262.81
  Q 269.35 262.58 269.17 262.53
  Q 268.93 262.47 268.81 262.69
  Q 266.68 266.74 262.17 270.66
  Q 259.85 272.67 257.81 271.51
  C 254.16 269.44 253.63 262.86 254.49 259.38
  C 256.77 250.19 261.18 240.80 267.51 233.86
  Q 271.94 229.01 277.66 231.24
  C 283.10 233.36 283.00 239.90 280.93 244.34
  Q 280.44 245.39 279.29 245.16
  Q 279.12 245.12 278.96 245.03
  Q 278.13 244.51 278.53 243.61
  Q 279.79 240.77 279.79 237.66
  A 0.86 0.86 0.0 0 0 278.51 236.91
  Q 275.65 238.54 273.58 241.14
  Q 267.41 248.90 263.44 257.94
  Q 261.77 261.75 261.34 265.77
  Q 261.03 268.71 262.94 266.45
  Q 270.26 257.78 274.22 247.21
  Q 275.31 244.31 277.97 245.89
  L 279.97 247.08
  Q 283.01 248.89 281.63 252.14
  C 279.24 257.77 277.54 261.26 277.21 266.00
  A 0.44 0.43 76.5 0 0 277.87 266.41
  Q 279.59 265.36 280.82 263.70
  Q 285.45 257.41 287.05 250.94
  C 288.67 244.41 291.23 238.43 293.09 232.22
  Q 294.19 228.55 297.43 230.59
  Q 298.78 231.44 299.65 232.92
  A 4.82 4.79 -52.1 0 1 300.11 236.71
  Q 297.59 245.26 294.56 253.03
  Q 294.49 253.21 294.67 253.26
  Q 294.78 253.29 294.83 253.18
  C 297.57 246.57 300.58 239.58 304.16 233.92
  Q 307.47 228.69 313.02 231.77
  Q 316.92 233.93 315.39 238.53
  Q 312.15 248.24 308.83 256.82
  C 307.57 260.08 306.73 263.52 305.79 266.76
  Q 304.86 270.00 307.30 267.68
  C 310.39 264.76 312.52 261.08 314.69 257.41
  Q 316.20 254.87 317.29 251.84
  Q 321.00 241.58 327.59 234.08
  C 331.00 230.20 336.54 229.04 340.45 232.73
  C 343.52 235.63 342.72 241.42 341.06 244.76
  Q 340.62 245.64 339.76 245.19
  L 339.35 244.99
  Q 338.51 244.55 338.89 243.68
  Q 340.13 240.90 340.23 238.02
  A 1.05 1.05 0.0 0 0 338.61 237.11
  Q 335.75 238.96 333.48 241.79
  Q 328.36 248.17 324.20 257.02
  Q 322.03 261.62 321.67 266.11
  Q 321.50 268.19 322.98 266.72
  C 325.94 263.78 327.96 260.17 330.20 256.62
  C 332.24 253.39 333.31 249.96 335.05 246.58
  Q 336.02 244.68 337.89 245.71
  L 340.31 247.03
  Q 343.27 248.66 342.09 251.83
  C 340.38 256.41 337.93 260.97 337.48 265.83
  A 0.54 0.54 0.0 0 0 338.21 266.39
  Q 339.82 265.77 340.62 264.60
  Q 345.70 257.23 346.52 254.01
  C 348.49 246.29 351.26 239.27 353.39 232.13
  Q 354.47 228.50 357.58 230.67
  Q 357.94 230.92 358.25 231.14
  Q 361.22 233.21 360.25 236.69
  Q 358.15 244.22 355.20 251.94
  Q 355.12 252.13 355.31 252.21
  L 355.54 252.30
  Q 355.59 252.32 355.61 252.28
  Q 356.81 249.02 358.35 245.62
  Q 361.38 238.97 364.74 233.33
  Q 367.56 228.60 373.45 231.37
  Q 377.52 233.29 376.00 237.67
  Q 372.59 247.54 368.55 258.37
  Q 366.93 262.70 365.92 267.49
  Q 365.46 269.67 367.12 268.18
  C 370.52 265.10 372.43 261.43 374.83 257.66
  C 377.96 252.73 379.93 246.63 381.21 241.06
  Q 382.44 235.67 384.60 230.19
  A 0.31 0.31 0.0 0 0 384.28 229.77
  C 379.65 230.31 374.63 229.36 370.19 228.25
  C 362.84 226.41 356.90 222.05 355.60 214.22
  Q 355.47 213.28 355.66 212.73
  A 0.52 0.52 0.0 0 1 356.61 212.65
  C 357.57 214.39 358.49 215.95 360.04 217.26
  Q 367.36 223.44 377.52 223.82
  Q 381.71 223.98 386.16 224.10
  Q 386.69 224.12 386.84 223.62
  L 388.79 217.50
  Q 390.61 214.04 392.02 210.26
  Q 392.73 208.39 394.96 209.10
  Q 396.73 209.67 398.01 212.03
  C 399.21 214.24 400.41 216.33 399.40 218.87
  Q 398.60 220.90 398.14 222.76
  Q 397.98 223.41 398.64 223.48
  L 409.42 224.64
  Z
  M 408.64 232.06
  Q 412.10 233.87 410.88 237.58
  Q 407.60 247.56 403.34 258.90
  Q 401.70 263.26 400.87 267.76
  Q 400.62 269.08 401.59 268.14
  Q 405.43 264.37 408.04 259.62
  C 409.28 257.37 410.65 255.56 411.52 253.04
  Q 413.83 246.30 418.18 239.58
  C 419.62 237.35 421.48 235.53 423.14 233.47
  A 0.65 0.65 0.0 0 0 422.93 232.48
  C 414.68 228.25 405.65 228.34 396.17 228.91
  A 0.92 0.91 -81.2 0 0 395.36 229.51
  Q 393.21 235.42 390.82 241.33
  C 387.52 249.47 385.28 258.40 384.39 267.03
  Q 384.19 268.90 385.65 267.71
  Q 386.19 267.26 386.63 266.71
  Q 390.49 261.83 393.77 255.94
  Q 396.49 251.04 398.20 245.39
  Q 400.26 238.58 402.23 232.56
  Q 403.30 229.26 406.37 230.87
  L 408.64 232.06
  Z"
/>
<path fill="#336fd1" d="
  M 463.31 219.70
  Q 465.21 223.01 465.48 226.75
  Q 465.66 229.13 464.27 233.83
  Q 463.01 238.10 462.26 242.50
  Q 461.79 242.55 461.83 242.97
  Q 461.86 243.39 461.86 243.50
  Q 461.83 244.39 462.71 244.52
  L 457.03 256.77
  L 454.94 252.66
  Q 454.73 252.25 454.27 252.22
  Q 453.52 252.16 453.27 251.53
  Q 452.42 250.89 451.72 251.40
  Q 451.80 249.78 452.31 248.26
  Q 457.29 233.43 463.31 219.70
  Z
  M 453.13 251.12
  Q 453.48 251.56 454.04 251.77
  Q 454.67 252.00 454.40 251.39
  Q 453.88 250.19 452.62 250.36
  Q 451.93 250.44 452.48 250.86
  Q 452.77 251.08 453.13 251.12
  Z"
/>
<path fill="#134193" fill-opacity="0.643" d="
  M 428.76 229.81
  L 424.27 230.98
  L 419.13 227.70
  L 422.11 228.13
  Q 422.65 228.22 422.86 227.70
  Q 423.13 227.01 422.46 226.62
  Q 421.16 225.84 420.01 224.86
  Q 419.88 224.75 419.79 224.61
  Q 419.56 224.26 419.14 224.34
  A 0.48 0.48 0.0 0 1 418.57 223.98
  Q 418.44 223.43 417.89 223.60
  Q 417.48 223.73 417.41 223.30
  Q 417.29 222.50 417.41 221.67
  Q 417.43 221.49 417.58 221.39
  Q 417.65 221.35 417.73 221.34
  Q 418.00 221.32 417.78 221.47
  Q 417.34 221.77 417.39 222.35
  Q 417.47 223.23 417.77 222.40
  Q 418.19 221.24 419.72 220.70
  Q 420.10 220.57 420.43 220.80
  Q 425.69 224.37 428.76 229.81
  Z"
/>
<path fill="#eaebee" d="
  M 119.42 225.60
  C 117.22 224.98 115.41 227.00 115.42 229.12
  Q 115.46 237.94 115.46 246.02
  Q 115.47 248.06 117.50 248.14
  Q 117.77 248.15 118.05 248.08
  Q 120.71 247.36 120.72 244.60
  L 120.73 241.03
  Q 120.73 240.29 121.45 240.13
  L 124.71 239.41
  Q 125.38 239.26 125.36 239.95
  C 125.27 242.00 125.58 244.32 124.87 246.24
  Q 122.42 252.89 115.72 252.74
  C 111.78 252.65 110.77 249.15 110.73 245.94
  Q 110.65 237.94 110.83 230.11
  Q 111.01 222.71 118.18 221.13
  C 124.61 219.71 125.72 225.55 125.25 230.29
  Q 125.23 230.45 125.08 230.48
  L 120.81 231.43
  A 0.13 0.12 86.9 0 1 120.66 231.29
  Q 120.99 228.66 120.44 226.63
  A 1.48 1.48 0.0 0 0 119.42 225.60
  Z"
/>
<path fill="#134193" fill-opacity="0.643" d="
  M 446.97 221.70
  Q 447.03 222.98 447.00 224.23
  Q 446.99 224.99 446.54 226.67
  Q 445.74 229.71 447.82 232.08
  L 445.12 240.82
  Q 445.15 240.32 445.04 239.92
  Q 444.91 239.45 444.50 239.21
  Q 443.62 238.69 443.00 239.34
  Q 442.58 239.77 442.53 239.18
  Q 441.96 233.08 443.16 230.76
  Q 445.41 226.39 446.97 221.70
  Z"
/>
<path fill="#134193" fill-opacity="0.643" d="
  M 409.42 224.64
  Q 412.98 224.50 416.09 226.45
  L 409.42 224.64
  Z"
/>
<path fill="#eaebee" d="
  M 104.16 239.50
  Q 106.68 240.77 106.93 243.61
  C 107.40 248.79 106.89 252.13 102.19 254.94
  Q 99.71 256.42 92.48 257.38
  Q 92.01 257.44 92.01 256.96
  L 92.03 227.69
  A 0.83 0.83 0.0 0 1 92.67 226.88
  Q 96.27 226.08 99.79 225.33
  C 107.99 223.59 108.30 235.00 104.05 238.63
  Q 103.45 239.15 104.16 239.50
  Z
  M 96.67 237.16
  A 1.24 1.24 0.0 0 0 98.45 238.30
  L 101.13 237.01
  A 1.24 1.24 0.0 0 0 101.83 235.91
  L 101.90 231.11
  A 1.24 1.24 0.0 0 0 100.62 229.86
  L 97.98 229.95
  A 1.24 1.24 0.0 0 0 96.79 231.16
  L 96.67 237.16
  Z
  M 96.70 251.00
  A 1.16 1.16 0.0 0 0 98.35 252.06
  L 101.50 250.63
  A 1.16 1.16 0.0 0 0 102.18 249.58
  L 102.24 243.71
  A 1.16 1.16 0.0 0 0 101.07 242.54
  L 97.91 242.58
  A 1.16 1.16 0.0 0 0 96.76 243.73
  L 96.70 251.00
  Z"
/>
<path fill="#eaebee" d="
  M 87.00 228.36
  L 87.02 258.21
  A 0.36 0.36 0.0 0 1 86.74 258.56
  L 82.69 259.46
  A 0.36 0.36 0.0 0 1 82.25 259.11
  L 82.27 229.20
  A 0.36 0.36 0.0 0 1 82.56 228.85
  L 86.57 228.01
  A 0.36 0.36 0.0 0 1 87.00 228.36
  Z"
/>
<path fill="#336fd1" d="
  M 428.76 229.81
  Q 432.57 230.23 434.07 231.99
  Q 429.84 230.46 425.61 231.44
  Q 425.21 231.53 424.90 231.41
  Q 424.40 231.22 424.27 230.98
  L 428.76 229.81
  Z"
/>
<path fill="#134193" fill-opacity="0.643" d="
  M 453.13 251.12
  Q 452.77 251.08 452.48 250.86
  Q 451.93 250.44 452.62 250.36
  Q 453.88 250.19 454.40 251.39
  Q 454.67 252.00 454.04 251.77
  Q 453.48 251.56 453.13 251.12
  Z"
/>
<path fill="#134193" fill-opacity="0.643" d="
  M 457.03 256.77
  L 450.30 266.86
  Q 450.71 264.17 451.98 262.97
  Q 453.46 261.57 453.34 259.60
  Q 453.15 256.50 452.99 253.39
  A 0.80 0.79 9.5 0 0 452.49 252.70
  Q 451.97 252.49 451.25 252.78
  Q 451.39 251.92 451.72 251.40
  Q 452.42 250.89 453.27 251.53
  Q 453.52 252.16 454.27 252.22
  Q 454.73 252.25 454.94 252.66
  L 457.03 256.77
  Z"
/>
<path fill="#eaebee" d="
  M 97.10 264.82
  Q 105.83 267.76 115.64 265.71
  Q 115.71 265.69 115.72 265.76
  L 115.78 266.00
  Q 115.82 266.17 115.66 266.22
  Q 101.73 270.34 89.96 267.17
  Q 86.21 266.16 82.12 262.63
  A 0.14 0.14 0.0 0 1 82.20 262.38
  Q 85.97 261.86 88.87 260.45
  A 0.63 0.63 0.0 0 1 89.57 260.54
  Q 92.95 263.43 97.10 264.82
  Z"
/>
<path fill="#134193" fill-opacity="0.643" d="
  M 457.58 261.53
  L 458.43 267.96
  Q 456.03 268.34 454.70 270.03
  Q 452.63 272.67 452.53 272.77
  Q 451.06 274.24 449.84 275.97
  Q 449.18 273.61 447.92 272.09
  Q 450.41 271.06 452.37 268.62
  Q 454.96 265.40 457.58 261.53
  Z"
/>
<path fill="#eaebee" d="
  M 137.17 327.83
  L 127.78 313.99
  A 0.45 0.45 0.0 0 1 128.12 313.29
  Q 142.56 312.36 154.70 307.11
  Q 157.81 305.77 160.41 303.22
  C 164.93 298.80 160.23 294.42 156.25 292.45
  Q 148.11 288.40 139.92 287.19
  Q 139.29 287.09 139.67 286.59
  Q 146.15 277.92 147.44 266.56
  Q 147.63 264.83 148.90 266.03
  Q 170.54 286.45 194.70 307.57
  A 1.61 1.60 14.7 0 1 195.23 308.47
  Q 195.44 309.51 194.51 310.10
  Q 191.90 311.75 189.07 312.23
  Q 178.17 314.08 166.43 314.86
  C 155.87 315.57 143.51 318.26 137.91 327.81
  A 0.44 0.44 0.0 0 1 137.17 327.83
  Z"
/>
<path fill="#336fd1" d="
  M 458.43 267.96
  Q 459.72 279.06 467.27 286.91
  Q 467.92 287.59 467.00 287.42
  Q 464.72 287.00 462.43 285.63
  C 457.79 282.83 453.33 279.98 449.84 275.97
  Q 451.06 274.24 452.53 272.77
  Q 452.63 272.67 454.70 270.03
  Q 456.03 268.34 458.43 267.96
  Z"
/>
<path fill="#eaebee" d="
  M 107.45 283.88
  Q 105.21 280.41 102.15 275.96
  Q 101.53 275.07 101.89 274.04
  Q 102.50 272.26 104.87 271.95
  Q 114.96 270.64 126.92 271.73
  Q 127.66 271.79 127.28 272.43
  Q 124.06 277.77 120.20 280.50
  Q 116.17 283.35 108.57 284.40
  A 1.16 1.14 69.4 0 1 107.45 283.88
  Z"
/>
<path fill="#eaebee" d="
  M 105.32 283.98
  A 0.10 0.10 0.0 0 1 105.32 284.18
  Q 101.10 285.29 96.56 284.55
  Q 88.75 283.27 83.74 277.22
  Q 82.28 275.45 81.46 273.36
  Q 81.20 272.71 81.89 272.68
  C 86.12 272.48 94.54 271.32 97.41 274.98
  Q 100.60 279.03 103.48 282.72
  Q 104.19 283.64 105.32 283.98
  Z"
/>
<path fill="#eaebee" d="
  M 126.31 313.84
  Q 132.03 321.53 136.22 329.44
  Q 136.29 329.58 136.16 329.66
  L 135.95 329.80
  Q 135.90 329.83 135.86 329.78
  Q 135.08 328.39 133.68 327.58
  Q 126.78 323.61 116.62 323.72
  Q 99.79 323.90 86.25 327.88
  Q 75.66 331.00 63.79 335.53
  Q 63.28 335.72 63.07 335.22
  L 38.71 278.20
  A 0.58 0.57 -10.2 0 1 39.27 277.40
  Q 49.52 278.00 59.90 276.46
  C 60.98 276.31 61.88 276.43 62.45 277.45
  Q 66.23 284.17 71.16 288.97
  Q 71.75 289.56 70.97 289.84
  Q 66.99 291.28 63.82 293.00
  C 60.37 294.88 56.87 298.73 60.11 302.60
  Q 62.91 305.92 67.98 307.83
  Q 76.38 310.98 82.65 312.00
  Q 104.26 315.50 125.68 313.56
  A 0.73 0.73 0.0 0 1 126.31 313.84
  Z"
/>
<path fill="#eaebee" d="
  M 264.24 299.04
  C 265.59 292.34 266.98 285.56 267.79 278.84
  Q 267.87 278.20 268.52 278.22
  C 273.43 278.41 278.45 277.02 277.20 284.53
  Q 276.36 289.58 275.48 294.26
  C 274.45 299.77 269.64 300.20 264.69 299.66
  Q 264.13 299.60 264.24 299.04
  Z
  M 268.11 295.65
  A 1.01 1.01 0.0 0 0 269.36 296.81
  L 271.18 296.34
  A 1.01 1.01 0.0 0 0 271.92 295.52
  L 274.01 282.86
  A 1.01 1.01 0.0 0 0 273.16 281.70
  L 271.78 281.49
  A 1.01 1.01 0.0 0 0 270.64 282.30
  L 268.11 295.65
  Z"
/>
<path fill="#eaebee" d="
  M 282.14 296.67
  L 286.83 296.69
  A 0.50 0.50 0.0 0 1 287.32 297.27
  L 286.97 299.29
  A 0.50 0.50 0.0 0 1 286.48 299.70
  L 278.07 299.74
  A 0.50 0.50 0.0 0 1 277.58 299.15
  L 281.33 278.66
  A 0.50 0.50 0.0 0 1 281.83 278.25
  L 290.05 278.24
  A 0.50 0.50 0.0 0 1 290.54 278.81
  L 290.24 281.08
  A 0.50 0.50 0.0 0 1 289.75 281.52
  L 284.54 281.60
  A 0.50 0.50 0.0 0 0 284.06 282.00
  L 283.07 286.62
  A 0.50 0.50 0.0 0 0 283.54 287.23
  L 287.15 287.33
  A 0.50 0.50 0.0 0 1 287.64 287.88
  L 287.42 290.02
  A 0.50 0.50 0.0 0 1 286.92 290.47
  L 282.98 290.50
  A 0.50 0.50 0.0 0 0 282.49 290.92
  L 281.64 296.09
  A 0.50 0.50 0.0 0 0 282.14 296.67
  Z"
/>
<path fill="#eaebee" d="
  M 301.30 291.53
  Q 301.16 294.80 302.18 291.69
  L 306.49 278.45
  Q 306.56 278.23 306.79 278.24
  L 309.54 278.29
  Q 309.81 278.30 309.72 278.55
  L 302.72 298.95
  Q 302.47 299.68 301.70 299.69
  L 298.68 299.74
  Q 298.11 299.75 298.11 299.18
  L 298.27 278.75
  Q 298.27 278.27 298.75 278.26
  L 301.30 278.24
  Q 301.88 278.23 301.85 278.81
  L 301.30 291.53
  Z"
/>
<path fill="#eaebee" d="
  M 315.51 278.63
  L 311.83 299.48
  A 0.31 0.31 0.0 0 1 311.52 299.74
  L 308.81 299.73
  A 0.31 0.31 0.0 0 1 308.51 299.36
  L 312.38 278.50
  A 0.31 0.31 0.0 0 1 312.69 278.24
  L 315.20 278.27
  A 0.31 0.31 0.0 0 1 315.51 278.63
  Z"
/>
<path fill="#eaebee" d="
  M 315.31 299.19
  C 317.04 292.69 317.74 285.46 318.84 278.84
  Q 318.94 278.20 319.59 278.23
  C 321.60 278.30 325.26 277.73 326.84 278.94
  Q 328.73 280.39 328.29 283.13
  Q 327.43 288.51 326.64 293.86
  C 325.75 299.96 320.44 300.11 315.59 299.59
  A 0.32 0.32 0.0 0 1 315.31 299.19
  Z
  M 319.27 295.54
  A 1.11 1.11 0.0 0 0 320.71 296.80
  L 322.12 296.34
  A 1.11 1.11 0.0 0 0 322.86 295.48
  L 325.16 283.04
  A 1.11 1.11 0.0 0 0 324.23 281.74
  L 322.96 281.55
  A 1.11 1.11 0.0 0 0 321.70 282.44
  L 319.27 295.54
  Z"
/>
<path fill="#eaebee" d="
  M 335.47 294.95
  L 332.82 294.99
  A 0.52 0.52 0.0 0 0 332.34 295.35
  L 331.07 299.29
  A 0.52 0.52 0.0 0 1 330.60 299.65
  L 328.32 299.75
  A 0.52 0.52 0.0 0 1 327.81 299.07
  L 334.79 278.58
  A 0.52 0.52 0.0 0 1 335.29 278.23
  L 338.71 278.27
  A 0.52 0.52 0.0 0 1 339.22 278.80
  L 338.95 299.30
  A 0.52 0.52 0.0 0 1 338.40 299.81
  L 336.24 299.68
  A 0.52 0.52 0.0 0 1 335.76 299.13
  L 336.00 295.50
  A 0.52 0.52 0.0 0 0 335.47 294.95
  Z
  M 335.18 292.02
  A 0.75 0.74 4.3 0 0 336.01 291.31
  L 336.23 285.01
  Q 336.28 283.60 335.75 284.91
  Q 334.38 288.31 333.56 291.19
  Q 333.38 291.82 334.02 291.89
  L 335.18 292.02
  Z"
/>
<path fill="#eaebee" d="
  M 353.69 287.30
  L 357.22 287.32
  A 0.59 0.59 0.0 0 1 357.80 288.00
  L 357.50 289.98
  A 0.59 0.59 0.0 0 1 356.91 290.48
  L 353.13 290.45
  A 0.59 0.59 0.0 0 0 352.54 290.95
  L 351.73 296.11
  A 0.59 0.59 0.0 0 0 352.32 296.80
  L 356.71 296.71
  A 0.59 0.59 0.0 0 1 357.31 297.35
  L 357.17 299.14
  A 0.59 0.59 0.0 0 1 356.59 299.68
  L 348.32 299.75
  A 0.59 0.59 0.0 0 1 347.74 299.06
  L 351.45 278.73
  A 0.59 0.59 0.0 0 1 352.03 278.25
  L 360.07 278.22
  A 0.59 0.59 0.0 0 1 360.65 278.91
  L 360.30 281.11
  A 0.59 0.59 0.0 0 1 359.71 281.60
  L 354.61 281.55
  A 0.59 0.59 0.0 0 0 354.02 282.03
  L 353.12 286.59
  A 0.59 0.59 0.0 0 0 353.69 287.30
  Z"
/>
<path fill="#eaebee" d="
  M 364.78 281.49
  L 362.30 281.56
  A 0.40 0.40 0.0 0 1 361.89 281.10
  L 362.33 278.58
  A 0.40 0.40 0.0 0 1 362.73 278.25
  L 372.21 278.25
  A 0.40 0.40 0.0 0 1 372.61 278.71
  L 372.22 281.27
  A 0.40 0.40 0.0 0 1 371.82 281.61
  L 368.81 281.57
  A 0.40 0.40 0.0 0 0 368.41 281.91
  L 365.55 299.35
  A 0.40 0.40 0.0 0 1 365.15 299.69
  L 362.52 299.69
  A 0.40 0.40 0.0 0 1 362.12 299.22
  L 365.18 281.96
  A 0.40 0.40 0.0 0 0 364.78 281.49
  Z"
/>
<path fill="#eaebee" d="
  M 377.47 287.32
  L 381.05 287.25
  A 0.49 0.49 0.0 0 1 381.55 287.82
  L 381.19 290.04
  A 0.49 0.49 0.0 0 1 380.71 290.46
  L 376.72 290.50
  A 0.49 0.49 0.0 0 0 376.25 290.91
  L 375.30 296.14
  A 0.49 0.49 0.0 0 0 375.78 296.72
  L 380.58 296.77
  A 0.49 0.49 0.0 0 1 381.06 297.36
  L 380.65 299.28
  A 0.49 0.49 0.0 0 1 380.18 299.67
  L 371.98 299.73
  A 0.49 0.49 0.0 0 1 371.50 299.16
  L 374.93 278.68
  A 0.49 0.49 0.0 0 1 375.41 278.27
  L 383.74 278.22
  A 0.49 0.49 0.0 0 1 384.23 278.78
  L 383.88 281.17
  A 0.49 0.49 0.0 0 1 383.40 281.59
  L 378.23 281.58
  A 0.49 0.49 0.0 0 0 377.74 281.99
  L 376.97 286.75
  A 0.49 0.49 0.0 0 0 377.47 287.32
  Z"
/>
<path fill="#eaebee" d="
  M 389.09 290.85
  Q 388.12 290.71 387.95 291.78
  Q 387.33 295.56 386.88 299.10
  A 0.69 0.68 4.2 0 1 386.19 299.69
  L 383.94 299.67
  Q 383.25 299.66 383.37 298.98
  L 387.14 278.79
  Q 387.24 278.29 387.74 278.26
  Q 390.81 278.09 393.25 278.39
  C 397.55 278.90 396.82 283.82 395.71 286.75
  C 395.14 288.23 394.35 288.85 393.30 289.92
  Q 392.83 290.41 392.91 291.08
  L 393.93 299.00
  Q 394.03 299.77 393.26 299.75
  L 391.11 299.69
  Q 390.55 299.67 390.51 299.11
  L 389.90 291.71
  A 0.96 0.94 -88.9 0 0 389.09 290.85
  Z
  M 388.74 286.71
  A 1.01 1.01 0.0 0 0 389.94 287.90
  L 391.77 287.51
  A 1.01 1.01 0.0 0 0 392.55 286.67
  L 393.10 282.86
  A 1.01 1.01 0.0 0 0 392.25 281.72
  L 390.77 281.51
  A 1.01 1.01 0.0 0 0 389.64 282.30
  L 388.74 286.71
  Z"
/>
<path fill="#eaebee" d="
  M 405.75 291.47
  L 407.99 278.50
  A 0.30 0.30 0.0 0 1 408.28 278.25
  L 410.99 278.24
  A 0.30 0.30 0.0 0 1 411.28 278.60
  L 407.45 299.44
  A 0.30 0.30 0.0 0 1 407.15 299.68
  L 404.19 299.63
  A 0.30 0.30 0.0 0 1 403.90 299.36
  L 402.43 288.12
  A 0.30 0.30 0.0 0 0 401.84 288.10
  L 399.84 299.48
  A 0.30 0.30 0.0 0 1 399.54 299.72
  L 396.97 299.67
  A 0.30 0.30 0.0 0 1 396.68 299.32
  L 400.25 278.51
  A 0.30 0.30 0.0 0 1 400.54 278.26
  L 403.73 278.25
  A 0.30 0.30 0.0 0 1 404.03 278.52
  L 405.16 291.44
  A 0.30 0.30 0.0 0 0 405.75 291.47
  Z"
/>
<path fill="#eaebee" d="
  M 417.29 294.87
  L 415.32 295.10
  Q 414.68 295.18 414.48 295.79
  L 413.38 299.16
  Q 413.18 299.78 412.52 299.76
  L 410.54 299.68
  Q 409.79 299.65 410.11 298.98
  C 412.02 294.84 412.93 290.53 414.55 286.30
  Q 416.00 282.49 417.14 278.72
  Q 417.28 278.25 417.78 278.25
  L 421.26 278.25
  Q 421.77 278.25 421.77 278.76
  L 421.67 299.02
  A 0.71 0.70 89.6 0 1 420.98 299.73
  L 418.68 299.76
  Q 418.08 299.77 418.08 299.17
  L 418.06 295.55
  Q 418.05 294.78 417.29 294.87
  Z
  M 418.11 284.76
  C 417.44 286.94 416.64 289.06 416.16 291.21
  Q 415.98 292.00 416.79 292.01
  L 417.46 292.02
  Q 418.26 292.03 418.27 291.22
  Q 418.33 288.03 418.40 284.84
  Q 418.40 284.69 418.26 284.67
  L 418.25 284.67
  Q 418.14 284.65 418.11 284.76
  Z"
/>
<path fill="#eaebee" d="
  M 60.06 343.76
  C 75.54 335.62 93.11 328.74 110.23 326.82
  Q 120.62 325.65 130.00 328.16
  Q 131.34 328.52 132.47 329.24
  Q 133.58 329.94 134.50 330.86
  Q 135.62 331.98 134.14 331.41
  Q 124.28 327.57 114.39 329.09
  Q 106.29 330.34 99.00 333.26
  C 90.08 336.83 81.34 342.29 73.75 347.92
  Q 64.74 354.60 56.20 361.16
  Q 54.57 362.41 52.50 362.67
  A 0.91 0.90 -4.3 0 1 51.48 361.80
  Q 51.40 359.63 50.87 357.79
  C 49.32 352.35 47.34 346.37 45.13 340.84
  Q 35.38 316.37 24.30 292.57
  A 0.73 0.71 -40.3 0 1 24.37 291.84
  L 31.85 281.35
  Q 32.58 280.34 32.77 281.57
  Q 32.89 282.33 33.19 283.03
  Q 45.72 312.19 58.91 343.35
  A 0.83 0.83 0.0 0 0 60.06 343.76
  Z"
/>
<path fill="#eaebee" d="
  M 144.63 296.81
  C 142.40 293.05 139.63 292.92 136.06 291.27
  Q 135.68 291.09 135.97 290.79
  L 137.67 288.98
  A 1.03 1.02 -62.4 0 1 138.61 288.68
  Q 146.04 290.16 153.61 293.16
  Q 156.71 294.39 159.28 297.12
  C 163.36 301.48 153.55 305.88 150.60 306.84
  Q 139.50 310.47 126.69 311.80
  A 0.71 0.70 -18.8 0 1 126.03 311.48
  L 123.64 307.67
  A 0.16 0.16 0.0 0 1 123.76 307.42
  Q 133.63 306.38 141.45 302.45
  C 143.13 301.61 145.90 298.95 144.63 296.81
  Z"
/>
<path fill="#eaebee" d="
  M 77.02 294.46
  C 67.78 302.29 90.30 306.70 93.64 307.12
  Q 107.41 308.84 121.59 307.57
  A 0.48 0.48 0.0 0 1 122.04 307.78
  Q 123.54 309.86 125.00 311.69
  A 0.14 0.13 68.0 0 1 124.91 311.91
  Q 107.68 313.22 92.69 311.61
  C 86.12 310.90 62.72 307.51 60.82 299.57
  Q 60.68 299.01 60.95 298.49
  C 63.07 294.47 68.31 292.46 72.66 291.30
  Q 73.16 291.17 73.59 291.44
  L 76.96 293.59
  Q 77.58 293.98 77.02 294.46
  Z"
/>
<path fill="#eaebee" d="
  M 127.03 297.16
  Q 129.06 296.29 133.31 292.92
  A 1.23 1.22 31.8 0 1 134.35 292.68
  Q 138.81 293.71 142.23 296.50
  A 1.92 1.92 0.0 0 1 142.46 299.26
  Q 140.74 301.21 137.75 302.20
  Q 130.07 304.74 123.05 305.60
  Q 122.34 305.68 121.93 305.09
  L 119.00 300.88
  A 0.53 0.53 0.0 0 1 119.26 300.08
  Q 123.50 298.67 127.03 297.16
  Z"
/>
<path fill="#eaebee" d="
  M 83.70 293.48
  C 85.56 294.61 87.20 296.09 89.19 296.94
  Q 103.52 303.07 116.41 300.82
  Q 116.87 300.74 117.14 301.11
  Q 118.83 303.39 120.83 305.50
  A 0.13 0.12 64.3 0 1 120.76 305.71
  Q 100.94 308.01 83.36 302.66
  C 81.16 301.99 77.93 300.71 76.90 298.45
  Q 76.66 297.93 76.94 297.42
  C 77.55 296.34 78.50 295.39 79.80 295.28
  Q 81.43 295.13 82.35 293.78
  A 1.01 1.00 32.4 0 1 83.70 293.48
  Z"
/>
<path fill="#eaebee" d="
  M 139.07 328.28
  C 140.26 325.71 143.20 323.63 145.83 322.65
  Q 151.78 320.44 157.65 319.24
  Q 162.46 318.25 170.59 318.03
  Q 180.63 317.76 190.00 317.51
  Q 196.89 317.32 201.35 312.35
  Q 201.63 312.04 201.88 312.38
  Q 202.03 312.57 201.93 312.79
  Q 198.32 320.84 195.13 329.97
  A 0.93 0.92 15.0 0 1 194.07 330.58
  Q 176.34 326.91 155.40 325.92
  Q 149.52 325.65 143.40 326.90
  Q 141.23 327.34 139.75 328.76
  Q 138.13 330.33 139.07 328.28
  Z"
/>
</svg>
